<svg preserveAspectRatio="none" overflow="visible" style="display: block;" width="24" height="24" viewBox="0 0 24 24" fill="none" xmlns="http://www.w3.org/2000/svg">
<g id="ep:arrow-down">
<path id="Vector" d="M19.4977 7.98984L12 15.2977L4.50234 7.98984C4.36843 7.85942 4.18889 7.78643 4.00195 7.78643C3.81502 7.78643 3.63548 7.85942 3.50156 7.98984C3.43636 8.05319 3.38453 8.12898 3.34913 8.21271C3.31374 8.29645 3.2955 8.38643 3.2955 8.47734C3.2955 8.56825 3.31374 8.65824 3.34913 8.74198C3.38453 8.82571 3.43636 8.9015 3.50156 8.96484L11.4773 16.7391C11.6173 16.8751 11.8048 16.9512 12 16.9512C12.1952 16.9512 12.3827 16.8751 12.5227 16.7391L20.4984 8.96484C20.564 8.90146 20.6161 8.82553 20.6518 8.74158C20.6874 8.65762 20.7057 8.56736 20.7057 8.47617C20.7057 8.38498 20.6874 8.29472 20.6518 8.21077C20.6161 8.12681 20.564 8.05088 20.4984 7.9875C20.3645 7.85708 20.185 7.78409 19.998 7.78409C19.8111 7.78409 19.6316 7.85708 19.4977 7.9875V7.98984Z" fill="#D2F949"/>
</g>
</svg>
